<?xml version="1.0" encoding="UTF-8"?>
<svg version="1.1" xmlns="http://www.w3.org/2000/svg" width="227" height="95">
<path d="M0 0 C4.92094955 2.51334448 7.64020319 5.13846809 10.30078125 10.08203125 C10.71508059 12.9421253 10.90836375 15.30433373 10.86328125 18.14453125 C10.89905273 19.18577148 10.89905273 19.18577148 10.93554688 20.24804688 C10.92434736 24.17907551 10.46173738 25.8879293 7.9296875 28.94140625 C7.06214844 29.6478125 6.19460937 30.35421875 5.30078125 31.08203125 C4.43453125 31.80390625 3.56828125 32.52578125 2.67578125 33.26953125 C-2.56763909 37.27108888 -5.8014219 37.61588116 -12.3125 37.54296875 C-17.36277291 36.85561903 -21.10195352 34.67000123 -24.69921875 31.08203125 C-24.69921875 30.42203125 -24.69921875 29.76203125 -24.69921875 29.08203125 C-25.35921875 28.75203125 -26.01921875 28.42203125 -26.69921875 28.08203125 C-28.48712425 24.50622026 -28.97154337 21.55581442 -28.94921875 17.58203125 C-28.954375 16.66421875 -28.95953125 15.74640625 -28.96484375 14.80078125 C-28.68184473 11.90420305 -27.9027212 9.71827472 -26.69921875 7.08203125 C-26.03921875 7.08203125 -25.37921875 7.08203125 -24.69921875 7.08203125 C-24.42078125 6.21578125 -24.42078125 6.21578125 -24.13671875 5.33203125 C-19.04370265 -2.63964613 -8.202855 -2.78968296 0 0 Z M-16.69921875 11.08203125 C-19.02770922 14.29756571 -19.24378882 17.19224502 -18.69921875 21.08203125 C-16.68842156 24.63543678 -16.68842156 24.63543678 -13.69921875 27.08203125 C-10.55669021 27.82013404 -7.84600012 27.78785137 -4.69921875 27.08203125 C-2.19761057 25.20582512 -1.07976223 23.84311822 0.30078125 21.08203125 C0.42515207 16.48031083 0.14912914 13.07581021 -2.88671875 9.51953125 C-8.16383757 6.82233719 -12.06848652 7.48035063 -16.69921875 11.08203125 Z " fill="#FFFFFF" transform="translate(186.69921875,47.91796875)"/>
<path d="M0 0 C18 0 18 0 24 3 C27.21753841 6.64654353 27.50428139 10.14693802 27.37109375 14.83984375 C26.82621278 18.01162456 25.26944593 19.80147426 23 22 C23.3609375 22.62648438 23.721875 23.25296875 24.09375 23.8984375 C24.78984375 25.12433594 24.78984375 25.12433594 25.5 26.375 C25.9640625 27.18710938 26.428125 27.99921875 26.90625 28.8359375 C28 31 28 31 28 33 C28.66 33 29.32 33 30 33 C29.67 34.32 29.34 35.64 29 37 C25.13249947 37.2339769 21.71741995 37.15403422 18 36 C15.27784541 32.97422048 13.67553483 29.68361855 12 26 C11.67 25.67 11.34 25.34 11 25 C11 28.63 11 32.26 11 36 C7.37 36 3.74 36 0 36 C0 24.12 0 12.24 0 0 Z M10 8 C10 10.64 10 13.28 10 16 C11.98 15.67 13.96 15.34 16 15 C16.69159401 13.15274948 16.69159401 13.15274948 17 11 C16.34 10.01 15.68 9.02 15 8 C12.41619823 7.74969023 12.41619823 7.74969023 10 8 Z " fill="#FFFFFF" transform="translate(9,47)"/>
<path d="M0 0 C17 0 17 0 24 3 C27.31071743 6.84470411 27.36047029 10.04353351 27 15 C26.62537942 17.69726814 26.42592684 18.62321856 24.375 20.4375 C23.92125 20.953125 23.4675 21.46875 23 22 C23.23043864 24.65466049 23.23043864 24.65466049 24 27 C24.66 27 25.32 27 26 27 C29.22265625 32.17578125 29.22265625 32.17578125 30 34 C29.67 34.99 29.34 35.98 29 37 C25.13240304 37.23398273 21.71906183 37.14785859 18 36 C14.99572841 32.76856232 12 28.56017704 12 24 C11.34 24 10.68 24 10 24 C10 27.96 10 31.92 10 36 C6.7 36 3.4 36 0 36 C0 24.12 0 12.24 0 0 Z M10 8 C10 10.64 10 13.28 10 16 C11.98 15.67 13.96 15.34 16 15 C16.69159401 13.15274948 16.69159401 13.15274948 17 11 C16.34 10.01 15.68 9.02 15 8 C12.41619823 7.74969023 12.41619823 7.74969023 10 8 Z " fill="#FFFFFF" transform="translate(126,47)"/>
<path d="M0 0 C1.7687398 -0.13513292 3.54043055 -0.23205586 5.3125 -0.3125 C6.29863281 -0.37050781 7.28476562 -0.42851563 8.30078125 -0.48828125 C11 0 11 0 12.69140625 2.06640625 C14.18504796 5.41483886 15.44151983 8.77942624 16.625 12.25 C17.76948838 16.42604973 17.76948838 16.42604973 20 20 C20.32613281 19.14277344 20.65226562 18.28554687 20.98828125 17.40234375 C23.22380122 11.55306289 25.46895906 5.72814527 28 0 C31.63 0 35.26 0 39 0 C37.22484042 7.10063831 34.29773241 13.81251242 31.5 20.5625 C31.20480469 21.27857422 30.90960938 21.99464844 30.60546875 22.73242188 C28.77210979 27.1704428 26.90060376 31.59036749 25 36 C21.37 36 17.74 36 14 36 C13.52949219 34.85402344 13.05898437 33.70804688 12.57421875 32.52734375 C11.94533983 30.9973846 11.31643205 29.46743731 10.6875 27.9375 C10.37876953 27.18533203 10.07003906 26.43316406 9.75195312 25.65820312 C6.89482014 18.7108587 3.94731024 11.82345115 0.76953125 5.015625 C0 3 0 3 0 0 Z " fill="#FFFFFF" transform="translate(56,47)"/>
<path d="M0 0 C2.97 0 5.94 0 9 0 C10.9375 2.4375 10.9375 2.4375 12 5 C12.66 5.33 13.32 5.66 14 6 C14.33 6.99 14.66 7.98 15 9 C16.62652316 10.70586575 18.29006566 12.3777546 20 14 C20.33 9.38 20.66 4.76 21 0 C23.64 0 26.28 0 29 0 C29 9.9 29 19.8 29 30 C20 30 20 30 17.94921875 28.42578125 C17.53285156 27.72839844 17.11648437 27.03101562 16.6875 26.3125 C16.25824219 25.62800781 15.82898438 24.94351562 15.38671875 24.23828125 C14.92910156 23.49964844 14.47148438 22.76101562 14 22 C12.68 20.35 11.36 18.7 10 17 C9.67 21.29 9.34 25.58 9 30 C6.03 30 3.06 30 0 30 C0 20.1 0 10.2 0 0 Z " fill="#ED1C24" transform="translate(62,6)"/>
<path d="M0 0 C4.29 0 8.58 0 13 0 C13 0.66 13 1.32 13 2 C13.763125 2.268125 14.52625 2.53625 15.3125 2.8125 C19.09277939 4.48285601 20.44065772 5.85334832 22.25 9.5625 C23.28134548 14.2895001 23.52349063 18.35628337 22 23 C18.93610546 26.78883387 15.62909782 29.45696739 11 31 C5.14186505 31.39054233 1.25957756 30.93322595 -4 28 C-8.21324733 23.56500281 -9.26064401 20.17384847 -9.1484375 14.05859375 C-8.81848975 9.48273938 -7.83518024 6.79342123 -4.5 3.625 C-2 2 -2 2 0 2 C0 1.34 0 0.68 0 0 Z M1 10 C-0.38416443 12.50467849 -1.04882856 14.19432884 -0.875 17.0625 C0.37399759 19.82813752 1.51038353 21.23106198 4 23 C7.46954545 22.93913078 9.91947278 22.6274029 12.9375 20.875 C14.69297303 17.77710642 14.48723574 15.47155466 14 12 C11.87314071 9.4482714 11.87314071 9.4482714 9 8 C4.59500793 7.96652709 4.59500793 7.96652709 1 10 Z " fill="#ED1C24" transform="translate(36,6)"/>
<path d="M0 0 C3.03333605 -0.22893102 5.97366814 -0.35414522 9 0 C11.0625 1.875 11.0625 1.875 12 4 C12 4.66 12 5.32 12 6 C12.66 6.33 13.32 6.66 14 7 C14.33 7.33 14.66 7.66 15 8 C15.25652344 7.4225 15.51304688 6.845 15.77734375 6.25 C17.01429722 3.85105994 18.12566749 1.95135987 20 0 C23.10352525 -0.70581845 25.87228538 -0.4906219 29 0 C29 1.32 29 2.64 29 4 C28.34 4 27.68 4 27 4 C26.566875 5.11375 26.566875 5.11375 26.125 6.25 C25.17697356 8.56739797 24.15154089 10.77917115 23 13 C22.34 13 21.68 13 21 13 C19.95117609 16.56071312 19.69613047 20.05527897 19.4375 23.75 C19.35371094 24.92046875 19.26992187 26.0909375 19.18359375 27.296875 C19.09271484 28.63492188 19.09271484 28.63492188 19 30 C16.03 30 13.06 30 10 30 C9.93941406 29.02417969 9.87882812 28.04835938 9.81640625 27.04296875 C9.69072266 25.13451172 9.69072266 25.13451172 9.5625 23.1875 C9.48128906 21.92292969 9.40007812 20.65835937 9.31640625 19.35546875 C9.12815453 16.00818107 9.12815453 16.00818107 8 13 C7.34 12.67 6.68 12.34 6 12 C4.90757975 10.57928766 3.87244 9.11393217 2.875 7.625 C2.33617188 6.83351563 1.79734375 6.04203125 1.2421875 5.2265625 C0 3 0 3 0 0 Z " fill="#ED1C24" transform="translate(94,6)"/>
<path d="M0 0 C3.3 0 6.6 0 10 0 C10 11.88 10 23.76 10 36 C6.7 36 3.4 36 0 36 C0 24.12 0 12.24 0 0 Z " fill="#FFFFFF" transform="translate(43,47)"/>
<path d="M0 0 C6.6 0 13.2 0 20 0 C20 2.31 20 4.62 20 7 C18.02 7 16.04 7 14 7 C14 13.93 14 20.86 14 28 C11.36 28 8.72 28 6 28 C6 21.07 6 14.14 6 7 C4.02 7 2.04 7 0 7 C0 4.69 0 2.38 0 0 Z " fill="#ED1C24" transform="translate(6,8)"/>
<path d="M0 0 C1.47057839 0.00031709 2.94118001 0.01164091 4.41162109 0.03173828 C5.18565277 0.03456818 5.95968445 0.03739807 6.75717163 0.04031372 C9.23329016 0.05152325 11.70904909 0.07662875 14.18505859 0.10205078 C15.86213671 0.1120796 17.53922049 0.12120562 19.21630859 0.12939453 C23.33103082 0.15146504 27.44548371 0.18599977 31.56005859 0.22705078 C31.56005859 2.86705078 31.56005859 5.50705078 31.56005859 8.22705078 C18.69005859 8.22705078 5.82005859 8.22705078 -7.43994141 8.22705078 C-4.8032699 0.31703627 -4.8032699 0.31703627 0 0 Z " fill="#ED1C24" transform="translate(91.43994140625,74.77294921875)"/>
<path d="M0 0 C9.9 0 19.8 0 30 0 C30 2.64 30 5.28 30 8 C13.665 8.495 13.665 8.495 -3 9 C-2.01 6.03 -1.02 3.06 0 0 Z " fill="#ED1C24" transform="translate(93,62)"/>
<path d="M0 0 C2.33837891 -0.34057617 2.33837891 -0.34057617 5.2265625 -0.29296875 C6.7734375 -0.2784668 6.7734375 -0.2784668 8.3515625 -0.26367188 C9.43179688 -0.23853516 10.51203125 -0.21339844 11.625 -0.1875 C12.71296875 -0.17396484 13.8009375 -0.16042969 14.921875 -0.14648438 C17.61507409 -0.11104754 20.30729374 -0.06164331 23 0 C23 2.64 23 5.28 23 8 C14.42 8 5.84 8 -3 8 C-2 3 -2 3 0 0 Z " fill="#ED1C24" transform="translate(100,48)"/>
</svg>
